<?xml version="1.0" encoding="UTF-8"?>
<svg id="Layer_1" xmlns="http://www.w3.org/2000/svg" version="1.1" viewBox="0 0 1080 1080">
  <!-- Generator: Adobe Illustrator 30.4.0, SVG Export Plug-In . SVG Version: 2.1.4 Build 226)  -->
  <defs>
    <style>
      .st0 {
        fill: #0f3d34;
      }

      .st1 {
        fill: #b69148;
      }
    </style>
  </defs>
  <g>
    <path class="st1" d="M108.78,576.31h5.69c-12.21-35.7-21.06-48.02-34.44-48.02v48.02h4.22v.52h-16.85v-.52h4.22v-72.67h-4.22v-.52h16.85v.52h-4.22v24.01c4.95,0,9.69,1.48,14.32,4.42,7.37-1.9,14.53-12.53,18.75-28.43h-4.22v-.52h8.95v.52h-4.21c-4.42,16.11-11.27,26.75-18.85,28.75,10.96,7.16,20.75,22.32,27.8,43.91h4.11v.52h-17.9v-.52Z"/>
    <path class="st1" d="M154.04,576.31h4.22v-72.67h-4.22v-.52h4.22l38.23-.11,2.1,10.11h-.52l-.42-2c-1.05-5.06-4.21-7.48-9.37-7.48h-21.59v31.81h19.59v-4.22h.52v8.95h-.52v-4.21h-19.59v40.34h21.59c5.48,0,8.22-3.05,10.95-12.53l.95-3.26h.52l-4.21,16.32h-42.44v-.52Z"/>
    <path class="st1" d="M265.24,503.64h-33.17c-5.16,0-8.32,2.42-9.38,7.48l-.42,2h-.52l2.11-10.11,50.55.11v1.58l-46.23,71.61h35.91c5.48,0,8.22-6.22,10.95-15.7l.95-3.26h.52l-4.21,19.48h-52.66v-1.58l45.6-71.61Z"/>
    <path class="st1" d="M328.51,502.06c21.38,0,34.75,14.64,34.75,37.91s-13.37,37.91-34.75,37.91-34.75-14.64-34.75-37.91,13.38-37.91,34.75-37.91ZM328.51,577.14c15.38,0,25.8-15.06,25.8-37.17s-10.43-37.17-25.8-37.17-25.8,15.06-25.8,37.17,10.43,37.17,25.8,37.17ZM324.09,539.66h4.21v-4.21h.53v4.21h4.21v.52h-4.21v4.22h-.53v-4.22h-4.21v-.52Z"/>
    <path class="st1" d="M384.1,503.64h-4.22v-.52h16.85v.52h-4.22v72.67h4.22v.52h-16.85v-.52h4.22v-72.67Z"/>
    <path class="st1" d="M694.68,520.59c0-10.74,11.06-18.53,26.33-18.53,9.58,0,18.12,3.58,25.59,10.64v13.27c-4.42-14.64-13.79-23.17-25.59-23.17-10.53,0-19.48,7.06-19.48,15.38,0,19.91,48.23,9.9,48.23,37.81,0,11.27-9.27,21.91-28.96,21.91-9.47,0-20.43-4.32-27.17-10.64v-13.27c4.32,14,15.38,23.17,28.22,23.17s21.06-8.21,21.06-19.38c0-19.69-48.23-9.47-48.23-37.17Z"/>
    <path class="st1" d="M796.4,503.64v72.67h4.22v.52h-16.85v-.52h4.21v-72.67h-11.05c-5.48,0-8.22,3.05-10.96,12.53l-.95,3.26h-.53l4.22-16.32h46.97l4.21,16.32h-.52l-.95-3.26c-2.73-9.48-5.48-12.53-10.95-12.53h-11.06Z"/>
    <path class="st1" d="M887.58,576.31h4.21v.52h-16.85v-.52h4.21l-13.58-34.44c-1.37,2.11-3.05,2.84-5.05,2.84-3.9,0-8.74-2.95-13.8-2.95-12.53,0-8.85,32.01-16.74,34.86v.21h-9.06v-.52h4.22l26.01-70.87-.95-2.32h8.43l28.96,73.19ZM828.82,576.31c8.74-1.26,4.11-35.28,17.9-35.28,5.16,0,10.11,3.05,13.9,3.05,1.79,0,3.37-.74,4.63-2.95l-13.79-34.86-25.69,70.04h3.05Z"/>
    <path class="st1" d="M887.57,503.64h-4.22v-.52h17.38v.52h-4.21c2.42,14.96,10,25.17,27.38,36.65,11.16-7.79,18.22-19.38,21.27-36.65h-3.16v-.52h8v.52h-4.21c-3.05,18.12-10.11,29.38-24.75,39.49h1.69v33.17h4.21v.52h-16.85v-.52h4.22v-33.17h.1c-15.58-10.53-23.48-22.22-26.85-39.49Z"/>
    <path class="st1" d="M958.43,520.59c0-10.74,11.06-18.53,26.33-18.53,9.58,0,18.12,3.58,25.59,10.64v13.27c-4.42-14.64-13.79-23.17-25.59-23.17-10.53,0-19.48,7.06-19.48,15.38,0,19.91,48.23,9.9,48.23,37.81,0,11.27-9.27,21.91-28.96,21.91-9.47,0-20.43-4.32-27.17-10.64v-13.27c4.32,14,15.38,23.17,28.22,23.17s21.06-8.21,21.06-19.38c0-19.69-48.23-9.47-48.23-37.17Z"/>
  </g>
  <ellipse class="st1" cx="546.04" cy="539.97" rx="85.06" ry="138.55"/>
  <path class="st0" d="M521.26,588.68c-2.83,0-4.99-.49-6.5-1.47-1.51-.98-2.27-1.92-2.27-2.83,0-.59.22-1.08.65-1.47.43-.39.94-.59,1.53-.59s1.08.11,1.47.32c.39.22.78.48,1.18.79.51.43,1.13.83,1.85,1.21.73.37,1.77.56,3.15.56,4.55,0,7.69-2.61,9.42-7.83,1.18-3.69,1.77-8.46,1.77-14.3v-12.3c0-5.93-1.82-9.69-5.47-11.3,1.14-1.69,2.96-2.53,5.47-2.53v-27.25c0-2.12-.46-3.85-1.38-5.18-.92-1.33-2.09-2.32-3.5-2.97-1.41-.65-2.87-.97-4.36-.97-2.51,0-4.55.53-6.12,1.59-1.57,1.06-2.72,2.44-3.44,4.15-.73,1.71-1.09,3.52-1.09,5.44,0,1.65.27,3.25.79,4.8.53,1.55,1.28,2.83,2.27,3.83.98,1,2.14,1.5,3.47,1.5.51,0,.92-.04,1.24-.12.31-.08.61-.12.88-.12,1.06,0,1.59.37,1.59,1.12,0,.51-.36.94-1.09,1.3-.73.35-1.54.53-2.44.53-2.47,0-4.55-.68-6.24-2.03-1.69-1.35-2.96-3.06-3.83-5.12-.86-2.06-1.32-4.25-1.35-6.56,0-1.49.18-2.9.53-4.24-.67.35-1.39.53-2.18.53-1.33,0-2.61-.47-3.83-1.41-1.22-.94-1.82-2.24-1.82-3.88,0-.35.02-.69.06-1l.94.06c1.8,0,3.55-.73,5.24-2.18,2.59-2.28,5.3-4.09,8.12-5.44,2.82-1.35,6.12-2.03,9.89-2.03,2.79,0,5.44.46,7.98,1.38,2.53.92,4.52,2.31,5.97,4.15,1.33-2.75,3.45-4.12,6.36-4.12,2.55,0,4.38.84,5.47,2.53-3.65,1.61-5.47,5.4-5.47,11.36,0,6.98.02,13.07.06,18.25l14.72-18.25c3.22-3.92,4.83-6.96,4.83-9.12,0-.94-.39-1.69-1.18-2.24,2.51-1.69,5.02-2.53,7.53-2.53,1.41,0,2.74.22,3.97.65,1.24.43,1.85,1.06,1.85,1.88,3.18-1.69,6.2-2.53,9.06-2.53,2.31,0,3.47.84,3.47,2.53-2.83.94-5.25,2.4-7.27,4.39-2.02,1.98-3.86,4.07-5.5,6.27l-16.36,20.19,18.66,40.61c.94,2.28,2.19,4.47,3.74,6.59,1.55,2.12,3.64,3.69,6.27,4.71-.31,1.69-1.75,2.53-4.3,2.53-1.45,0-2.89-.21-4.33-.62-1.43-.41-2.7-1.05-3.8-1.91-.67,1.69-2.41,2.53-5.24,2.53-2.51,0-4.73-.84-6.65-2.53.86-.47,1.44-1.12,1.74-1.94.29-.82.44-1.73.44-2.71,0-1.77-.65-3.98-1.94-6.65l-13.54-29.49-6.06,7.53.06,22.01c0,5.81,1.8,9.56,5.42,11.24-1.06,1.69-2.87,2.53-5.42,2.53-2.87,0-5.1-.84-6.71-2.53-5.34,7.14-11.48,10.71-18.42,10.71Z"/>
  <path class="st1" d="M651.66,539.97s-.92-.24-2.2-.95c-3.91-2.18-6.28-6.34-6.5-10.81-1.78-35.4-11.54-68.33-27.96-93.74-15.92-24.62-36.44-39.63-58.61-43.2-1.67-.27-3.32-.78-4.75-1.69-4.48-2.84-5.6-7.11-5.6-7.11,0,0-1.13,4.28-5.6,7.11-1.43.91-3.08,1.42-4.75,1.69-22.18,3.57-42.7,18.58-58.61,43.2-16.42,25.41-26.19,58.34-27.96,93.74-.22,4.47-2.59,8.63-6.5,10.81-1.27.71-2.2.95-2.2.95,0,0,.92.24,2.2.95,3.91,2.18,6.28,6.34,6.5,10.81,1.78,35.4,11.54,68.33,27.96,93.74,15.92,24.62,36.43,39.63,58.61,43.2,1.67.27,3.32.78,4.75,1.69,4.48,2.84,5.6,7.11,5.6,7.11,0,0,1.13-4.28,5.6-7.11,1.43-.91,3.08-1.42,4.75-1.69,22.18-3.57,42.7-18.58,58.61-43.2,16.42-25.41,26.19-58.34,27.96-93.74.22-4.47,2.59-8.63,6.5-10.81,1.27-.71,2.19-.95,2.19-.95ZM546.04,686.4c-51.89,0-94.1-65.69-94.1-146.42s42.21-146.42,94.1-146.42,94.1,65.69,94.1,146.42-42.21,146.42-94.1,146.42Z"/>
  <path class="st0" d="M499.34,474.43c3.61,1.61,15.33-1,15.33-1,4.16,2.45,9.32,2.69,13.1-.07,3.19-2.33,5.41-7.07,3.64-11.44-.8-1.96-3.38-2.93-5.41-2.39-1.6.42-3.07,2.41-2.66,4.83.25,1.5,2.19,2.61,4.49,3.4-1.49,1.92-3.99,3.11-6.24,2.95-2.22-.15-4.88-1.43-6.32-3.53-2.13-3.09-2.12-7.17-.99-10.13.74,2.31,1.29,3.9,2.08,4.99.64.88,3.16,1.3,4.04.92-.86-2.39-1.66-4.89-1.41-6.92.21-1.7,2.24-4.16,4.23-5.04,5.48-2.42,11.9-1.04,16.08,2.58-1.8.46-3.88,1.15-5.03,2.07-.97.78-1.42,3.69-.84,4.88,2.5,0,5.75-.45,7.37.5,2.75,1.62,2.8,4.88,2.02,6.93-1.07,2.83-2.97,4.01-6.28,4.79.72,2.1,2.46,3.35,4.6,3.25,1.5-.07,3.61-1.67,4.83-3.21,1.29,1.34,3.19,2.97,4.62,3.17,1.95.27,4.49-1.03,4.98-3.25-2.82-.7-5.03-1.74-5.99-3.97-1.04-2.42-1.23-5.8,1.44-7.58,1.61-1.07,4.85-.7,7.42-.47.71-.79.61-3.72-.37-4.7-1.11-1.12-2.98-1.74-5.27-2.35,6.51-5.94,18.24-4.77,20.19,2.02.58,2.02-.3,4.98-1.57,7.33,3.67.96,5.59-2.06,6.46-6.07,1.81,5.81-.3,12.24-5.84,13.56-2.97.71-5.94-.22-7.63-2.78,1.95-.59,4.11-1.92,4.36-3.51.31-1.96-1.13-4.11-2.48-4.6-1.79-.65-4.68.34-5.52,2.14-1.95,4.23.1,8.87,3.28,11.43,3.61,2.9,8.84,2.86,13.32.31,0,0,9.41,1.63,11.79,1.71,4.86.16,7.61-3.67,7.14-7.87-7.66,1.9-11.78-3.09-13.24-9.44-2.33-10.08-13.65-14.21-23.14-12.04-.05-2.34-1.86-4.57-3.61-4.21-1.63,7.39-7.81,8.69-10.2,15.3-2.99-6.96-9.13-8.15-10.26-15.53-2.15.3-3.53,2-3.71,4.24-11.92-1.74-21.48,2.78-24.05,14.96-1.13,5.33-7.13,8.36-12.2,6.54-.64,2.86.78,6.08,3.46,7.28Z"/>
  <path class="st0" d="M546.09,445.66c-.29.19-3.97-2.77-2.39-6.04.61-1.26,1.34-2.39,1.29-3.81l-.43.03c-.21.01-.27,3.07-2.77,4.17-.78.35-1.76.26-2.31-.28-.58-.56-.69-1.51-.47-2.23.49.87,1.23,1.07,2.08.85.72-.19,1.28-.84,1.4-1.71l.1-.79c-.81-.04-1.43.12-1.77-.36-.11-.16.22-.64.43-.65l1.25-.06c-.05-1.74-1.14-3.11-2.84-3.07-.51.01-1.17.34-1.4.69-.26.41-.24,1.25.02,1.76-.95.24-1.83-.14-2.41-.81-.93-1.07-1.24-2.44-.69-3.72.53-1.21,1.75-2.11,3.25-2.09,3.52.05,6.02,3.75,6.08,7.3l.56-.07c-.02-1.9-.62-3.6-1.76-5.16-2.31-3.17-2.42-6.37.25-9.29l2.53-2.77,2,2.16c2.89,3.12,3.45,6.22.87,9.71-1.12,1.63-1.85,3.27-1.83,5.28l.26.18c.28.19.14-2.77,2.06-5.11.95-1.15,2.2-1.98,3.69-2.21,1.79-.27,3.35.76,3.89,2.46.5,1.57-.3,3.43-1.99,4.11-.23.09-.95.04-1.04-.04.09-.75.14-1.18-.11-1.68-.19-.38-.92-.71-1.48-.72-1.68-.04-2.88,1.53-2.79,3.17.65-.13,1.55-.15,1.77.58-.36.39-1.17.47-1.89.38,0,1.41.69,2.59,1.95,2.63.72.02,1.16-.22,1.68-.76.19.81-.05,1.66-.63,2.15-.51.43-1.46.51-2.15.18-1.61-.76-2.52-2.36-2.65-4.13l-.55-.03c.07,1.37.68,2.51,1.29,3.74,1.07,2.15-.03,4.59-1.95,5.83l-.39.25Z"/>
  <path class="st0" d="M592.74,605.52c-3.61-1.61-15.33,1-15.33,1-4.16-2.45-9.32-2.69-13.1.07-3.19,2.33-5.41,7.07-3.64,11.44.8,1.96,3.38,2.93,5.41,2.39,1.6-.42,3.07-2.41,2.66-4.83-.25-1.5-2.19-2.61-4.49-3.4,1.49-1.92,3.99-3.11,6.24-2.95,2.22.15,4.88,1.43,6.32,3.53,2.13,3.09,2.12,7.17.99,10.13-.74-2.31-1.29-3.9-2.08-4.99-.64-.88-3.16-1.3-4.04-.92.86,2.39,1.66,4.89,1.41,6.92-.21,1.7-2.24,4.16-4.23,5.04-5.48,2.42-11.9,1.04-16.08-2.58,1.8-.46,3.88-1.15,5.03-2.07.97-.78,1.42-3.69.84-4.88-2.5,0-5.75.45-7.37-.5-2.75-1.62-2.8-4.88-2.02-6.93,1.07-2.83,2.97-4.01,6.28-4.79-.72-2.1-2.46-3.35-4.6-3.25-1.5.07-3.61,1.67-4.83,3.21-1.29-1.34-3.19-2.97-4.62-3.17-1.95-.27-4.49,1.03-4.98,3.25,2.82.7,5.03,1.74,5.99,3.97,1.04,2.42,1.23,5.8-1.44,7.58-1.61,1.07-4.85.7-7.42.47-.71.79-.61,3.72.37,4.7,1.11,1.12,2.98,1.74,5.27,2.35-6.51,5.94-18.24,4.77-20.19-2.02-.58-2.02.3-4.98,1.57-7.33-3.67-.96-5.59,2.06-6.46,6.07-1.81-5.81.3-12.24,5.84-13.56,2.97-.71,5.94.22,7.63,2.78-1.95.59-4.11,1.92-4.36,3.51-.31,1.96,1.13,4.11,2.48,4.6,1.79.65,4.68-.34,5.52-2.14,1.95-4.23-.1-8.87-3.28-11.43-3.61-2.9-8.84-2.86-13.32-.31,0,0-9.41-1.63-11.79-1.71-4.86-.16-7.61,3.67-7.14,7.87,7.66-1.9,11.78,3.09,13.24,9.44,2.33,10.08,13.65,14.21,23.14,12.04.05,2.34,1.86,4.57,3.61,4.21,1.63-7.39,7.81-8.69,10.2-15.3,2.99,6.96,9.13,8.15,10.26,15.53,2.15-.3,3.53-2,3.71-4.24,11.92,1.74,21.48-2.78,24.05-14.96,1.13-5.33,7.13-8.36,12.2-6.54.64-2.86-.78-6.08-3.46-7.28Z"/>
  <path class="st0" d="M545.98,634.29c.29-.19,3.97,2.77,2.39,6.04-.61,1.26-1.34,2.39-1.29,3.81l.43-.03c.21-.01.27-3.07,2.77-4.17.78-.35,1.76-.26,2.31.28.58.56.69,1.51.47,2.23-.49-.87-1.23-1.07-2.08-.85-.72.19-1.28.84-1.4,1.71l-.1.79c.81.04,1.43-.12,1.77.36.11.16-.22.64-.43.65l-1.25.06c.05,1.74,1.14,3.11,2.84,3.07.51-.01,1.17-.34,1.4-.69.26-.41.24-1.25-.02-1.76.95-.24,1.83.14,2.41.81.93,1.07,1.24,2.44.69,3.72-.53,1.21-1.75,2.11-3.25,2.09-3.52-.05-6.02-3.75-6.08-7.3l-.56.07c.02,1.9.62,3.6,1.76,5.16,2.31,3.17,2.42,6.37-.25,9.29l-2.53,2.77-2-2.16c-2.89-3.12-3.45-6.22-.87-9.71,1.12-1.63,1.85-3.27,1.83-5.28l-.26-.18c-.28-.19-.14,2.77-2.06,5.11-.95,1.15-2.2,1.98-3.69,2.21-1.79.27-3.35-.76-3.89-2.46-.5-1.57.3-3.43,1.99-4.11.23-.09.95-.04,1.04.04-.09.75-.14,1.18.11,1.68.19.38.92.71,1.48.72,1.68.04,2.88-1.53,2.79-3.17-.65.13-1.55.15-1.77-.58.36-.39,1.17-.47,1.89-.38,0-1.41-.69-2.59-1.95-2.63-.72-.02-1.16.22-1.68.76-.19-.81.05-1.66.63-2.15.51-.43,1.46-.51,2.15-.18,1.61.76,2.52,2.36,2.65,4.13l.55.03c-.07-1.37-.68-2.51-1.29-3.74-1.07-2.15.03-4.59,1.95-5.83l.39-.25Z"/>
</svg>